<svg width="190" height="42" viewBox="0 0 190 42" fill="none" xmlns="http://www.w3.org/2000/svg">
<path d="M57.6335 10.724C56.6373 10.6594 55.987 10.6064 55.3344 10.5787C52.2812 10.4519 50.8515 11.4458 49.966 14.4251C49.5601 15.7949 49.3664 17.2292 48.9652 18.599C47.9759 21.9634 45.7921 24.0988 42.2916 24.7399C35.0531 26.0658 32.5511 28.9114 32.1959 36.2745C32.0092 40.144 29.5625 42.3946 26.0366 41.9427C22.9858 41.5506 20.9957 38.5598 21.7521 35.389C22.3655 32.8178 24.2956 31.8562 26.7007 31.3558C31.8962 30.2766 34.9124 27.2626 35.6181 22.6483C36.5612 16.4844 32.1452 11.0007 25.9098 10.6087C25.0681 10.5556 24.2195 10.6041 23.3801 10.5395C20.6936 10.3297 18.8188 8.47102 18.6205 5.86524C18.413 3.11187 20.0202 0.792032 22.5776 0.155575C25.1304 -0.480882 27.7684 0.881966 28.6977 3.3932C29.016 4.25565 28.9791 5.2726 29.3895 6.07047C30.3765 7.97754 31.2343 10.0898 32.6894 11.5887C35.3436 14.3214 37.961 14.0008 40.4676 11.0699C41.3416 10.046 42.0956 8.92069 42.8866 7.82765C46.6223 2.66912 52.3527 2.68987 56.017 7.90605C56.5796 8.70854 56.9993 9.61249 57.6288 10.7263L57.6335 10.724Z" fill="url(#paint0_linear_482_1699)"/>
<path d="M27.7223 21.3847C27.697 24.0366 25.7991 26.2043 23.1449 26.6193C20.8182 26.9837 18.4176 25.5586 17.5874 23.1972C17.1724 22.012 17.004 20.7413 16.6512 19.533C15.512 15.6312 11.7717 12.7095 7.70392 12.4743C6.44484 12.4028 5.1627 12.3913 3.94052 12.1261C1.43851 11.5796 -0.0603953 9.52956 0.00186679 6.97912C0.0664349 4.48633 1.82592 2.41784 4.21724 2.02352C6.97061 1.56924 9.56025 2.6715 10.0145 5.24962C11.3705 12.9471 15.7703 16.4084 23.5023 16.2723C26.0136 16.2285 27.7477 18.7259 27.7223 21.387V21.3847Z" fill="url(#paint1_linear_482_1699)"/>
<path d="M66.8268 15.8C67.0828 15.8 67.2108 15.9227 67.2108 16.168V17.944C67.2108 18.1893 67.0828 18.312 66.8268 18.312H63.6108V26.632C63.6108 26.8773 63.4828 27 63.2268 27H60.9548C60.7094 27 60.5868 26.8773 60.5868 26.632V18.312H57.3708C57.1148 18.312 56.9868 18.1893 56.9868 17.944V16.168C56.9868 15.9227 57.1148 15.8 57.3708 15.8H66.8268ZM78.4686 17.864C78.4686 18.0987 78.346 18.216 78.1006 18.216H72.6926V20.248H77.2366C77.4926 20.248 77.6206 20.3653 77.6206 20.6V22.264C77.6206 22.4987 77.4926 22.616 77.2366 22.616H72.6926V24.584H78.1006C78.346 24.584 78.4686 24.7013 78.4686 24.936V26.632C78.4686 26.8773 78.346 27 78.1006 27H70.0526C69.7966 27 69.6686 26.8773 69.6686 26.632V16.168C69.6686 15.9227 69.7966 15.8 70.0526 15.8H78.1006C78.346 15.8 78.4686 15.9227 78.4686 16.168V17.864ZM86.8645 27.272C85.0298 27.272 83.5525 26.7333 82.4325 25.656C81.3232 24.5787 80.7685 23.16 80.7685 21.4C80.7685 19.6293 81.3232 18.2053 82.4325 17.128C83.5525 16.0507 85.0298 15.512 86.8645 15.512C88.4112 15.512 89.7072 15.912 90.7525 16.712C91.7978 17.5013 92.4538 18.5787 92.7205 19.944C92.7525 20.2 92.6352 20.328 92.3685 20.328H89.9845C89.7712 20.328 89.6325 20.2267 89.5685 20.024C89.3658 19.4267 89.0352 18.968 88.5765 18.648C88.1178 18.328 87.5578 18.168 86.8965 18.168C85.9792 18.168 85.2378 18.4667 84.6725 19.064C84.1178 19.6507 83.8405 20.4293 83.8405 21.4C83.8405 22.3707 84.1178 23.1493 84.6725 23.736C85.2378 24.3227 85.9792 24.616 86.8965 24.616C87.5472 24.616 88.1018 24.456 88.5605 24.136C89.0298 23.816 89.3658 23.3627 89.5685 22.776C89.6325 22.5627 89.7712 22.456 89.9845 22.456H92.3685C92.6352 22.456 92.7525 22.584 92.7205 22.84C92.4538 24.216 91.7978 25.2987 90.7525 26.088C89.7178 26.8773 88.4218 27.272 86.8645 27.272ZM95.8433 27C95.5873 27 95.4593 26.8773 95.4593 26.632V16.168C95.4593 15.9227 95.5873 15.8 95.8433 15.8H98.1153C98.3606 15.8 98.4833 15.9227 98.4833 16.168V20.152H103.059V16.168C103.059 15.9227 103.187 15.8 103.443 15.8H105.699C105.955 15.8 106.083 15.9227 106.083 16.168V26.632C106.083 26.8773 105.955 27 105.699 27H103.443C103.187 27 103.059 26.8773 103.059 26.632V22.664H98.4833V26.632C98.4833 26.8773 98.3606 27 98.1153 27H95.8433ZM116.76 16.168C116.76 15.9227 116.888 15.8 117.144 15.8H119.416C119.662 15.8 119.784 15.9227 119.784 16.168V26.632C119.784 26.8773 119.662 27 119.416 27H117.608C117.406 27 117.251 26.9307 117.144 26.792L112.136 20.936V26.632C112.136 26.8773 112.014 27 111.768 27H109.496C109.24 27 109.112 26.8773 109.112 26.632V16.168C109.112 15.9227 109.24 15.8 109.496 15.8H111.256C111.438 15.8 111.592 15.8693 111.72 16.008L116.76 21.992V16.168ZM133.18 25.64C132.039 26.728 130.551 27.272 128.716 27.272C126.882 27.272 125.394 26.728 124.252 25.64C123.111 24.552 122.54 23.1387 122.54 21.4C122.54 19.6613 123.111 18.248 124.252 17.16C125.394 16.072 126.882 15.528 128.716 15.528C130.551 15.528 132.039 16.072 133.18 17.16C134.332 18.248 134.908 19.6613 134.908 21.4C134.908 23.1387 134.332 24.552 133.18 25.64ZM126.476 23.752C127.052 24.3493 127.799 24.648 128.716 24.648C129.634 24.648 130.38 24.3493 130.956 23.752C131.543 23.144 131.836 22.36 131.836 21.4C131.836 20.44 131.543 19.6613 130.956 19.064C130.38 18.456 129.634 18.152 128.716 18.152C127.799 18.152 127.052 18.456 126.476 19.064C125.9 19.6613 125.612 20.44 125.612 21.4C125.612 22.36 125.9 23.144 126.476 23.752ZM148.117 26.568C148.203 26.6853 148.219 26.7867 148.165 26.872C148.123 26.9573 148.021 27 147.861 27H145.141C144.949 27 144.8 26.92 144.693 26.76L142.357 23.656H140.661V26.632C140.661 26.8773 140.539 27 140.293 27H138.021C137.765 27 137.637 26.8773 137.637 26.632V16.168C137.637 15.9227 137.765 15.8 138.021 15.8H142.741C144.224 15.8 145.392 16.1413 146.245 16.824C147.099 17.5067 147.525 18.472 147.525 19.72C147.525 21.3627 146.827 22.4987 145.429 23.128L148.117 26.568ZM140.661 18.248V21.192H142.421C143.061 21.192 143.563 21.0693 143.925 20.824C144.299 20.568 144.485 20.2 144.485 19.72C144.485 19.2507 144.304 18.888 143.941 18.632C143.589 18.376 143.109 18.248 142.501 18.248H140.661ZM155.867 27.288C154.161 27.288 152.827 26.824 151.867 25.896C150.907 24.9573 150.427 23.656 150.427 21.992V16.168C150.427 15.9227 150.555 15.8 150.811 15.8H153.099C153.355 15.8 153.483 15.9227 153.483 16.168V22.072C153.483 22.8507 153.697 23.4693 154.123 23.928C154.561 24.3867 155.142 24.616 155.867 24.616C156.593 24.616 157.174 24.3867 157.611 23.928C158.049 23.4693 158.267 22.8507 158.267 22.072V16.168C158.267 15.9227 158.39 15.8 158.635 15.8H160.939C161.195 15.8 161.323 15.9227 161.323 16.168V21.992C161.323 23.656 160.843 24.9573 159.883 25.896C158.923 26.824 157.585 27.288 155.867 27.288ZM170.018 27.272C168.183 27.272 166.706 26.7333 165.586 25.656C164.476 24.5787 163.922 23.16 163.922 21.4C163.922 19.6293 164.476 18.2053 165.586 17.128C166.706 16.0507 168.183 15.512 170.018 15.512C171.564 15.512 172.86 15.912 173.906 16.712C174.951 17.5013 175.607 18.5787 175.874 19.944C175.906 20.2 175.788 20.328 175.522 20.328H173.138C172.924 20.328 172.786 20.2267 172.722 20.024C172.519 19.4267 172.188 18.968 171.73 18.648C171.271 18.328 170.711 18.168 170.05 18.168C169.132 18.168 168.391 18.4667 167.826 19.064C167.271 19.6507 166.994 20.4293 166.994 21.4C166.994 22.3707 167.271 23.1493 167.826 23.736C168.391 24.3227 169.132 24.616 170.05 24.616C170.7 24.616 171.255 24.456 171.714 24.136C172.183 23.816 172.519 23.3627 172.722 22.776C172.786 22.5627 172.924 22.456 173.138 22.456H175.522C175.788 22.456 175.906 22.584 175.874 22.84C175.607 24.216 174.951 25.2987 173.906 26.088C172.871 26.8773 171.575 27.272 170.018 27.272ZM183.54 27.272C182.122 27.272 180.927 26.9573 179.956 26.328C178.996 25.688 178.431 24.8453 178.26 23.8C178.228 23.544 178.346 23.416 178.612 23.416H180.916C181.108 23.416 181.252 23.512 181.348 23.704C181.476 24.0667 181.732 24.3547 182.116 24.568C182.511 24.7813 182.986 24.888 183.54 24.888C184.02 24.888 184.399 24.8027 184.676 24.632C184.954 24.4613 185.092 24.2267 185.092 23.928C185.092 23.608 184.932 23.352 184.612 23.16C184.303 22.968 183.908 22.84 183.428 22.776C182.948 22.7013 182.431 22.5947 181.876 22.456C181.332 22.3067 180.82 22.1307 180.34 21.928C179.86 21.7253 179.46 21.384 179.14 20.904C178.831 20.4133 178.676 19.8053 178.676 19.08C178.676 18.0133 179.103 17.1547 179.956 16.504C180.82 15.8427 181.946 15.512 183.332 15.512C184.58 15.512 185.663 15.8 186.58 16.376C187.508 16.952 188.068 17.7413 188.26 18.744C188.292 18.8613 188.271 18.9573 188.196 19.032C188.132 19.096 188.036 19.128 187.908 19.128H185.588C185.396 19.128 185.242 19.0373 185.124 18.856C184.89 18.1947 184.346 17.864 183.492 17.864C183.055 17.864 182.698 17.96 182.42 18.152C182.143 18.3333 182.004 18.5787 182.004 18.888C182.004 19.2187 182.159 19.4853 182.468 19.688C182.788 19.8907 183.183 20.0293 183.652 20.104C184.132 20.1787 184.644 20.2907 185.188 20.44C185.743 20.5787 186.255 20.7493 186.724 20.952C187.204 21.144 187.599 21.4747 187.908 21.944C188.228 22.4133 188.388 23 188.388 23.704C188.388 24.7707 187.946 25.6347 187.06 26.296C186.175 26.9467 185.002 27.272 183.54 27.272Z" fill="black"/>
<defs>
<linearGradient id="paint0_linear_482_1699" x1="58.8556" y1="21.1817" x2="12.0346" y2="20.9281" gradientUnits="userSpaceOnUse">
<stop stop-color="#B3F57B"/>
<stop offset="1" stop-color="#0CD1C3"/>
</linearGradient>
<linearGradient id="paint1_linear_482_1699" x1="58.8926" y1="14.5451" x2="12.0692" y2="14.2891" gradientUnits="userSpaceOnUse">
<stop stop-color="#B3F57B"/>
<stop offset="1" stop-color="#0CD1C3"/>
</linearGradient>
</defs>
</svg>
